<mxfile host="www.draw.io" modified="2020-01-14T12:22:52.522Z" agent="Mozilla/5.0 (Windows NT 10.0; Win64; x64) AppleWebKit/537.36 (KHTML, like Gecko) Chrome/78.0.3904.108 Safari/537.36" etag="2hk0qYnEsdQ1XbZtai1X" version="12.5.1" type="github">
  <diagram id="HzE4dRNunG5kQ9dWThFI" name="Page-1">
    <mxGraphModel dx="1662" dy="713" grid="1" gridSize="10" guides="1" tooltips="1" connect="1" arrows="1" fold="1" page="1" pageScale="1" pageWidth="827" pageHeight="1169" math="0" shadow="0">
      <root>
        <mxCell id="0"/>
        <mxCell id="1" parent="0"/>
        <mxCell id="HwGpaLwM5g7jAR4dSoJF-1" value="" style="shape=flexArrow;endArrow=classic;html=1;" edge="1" parent="1">
          <mxGeometry width="50" height="50" relative="1" as="geometry">
            <mxPoint x="80" y="510" as="sourcePoint"/>
            <mxPoint x="1080" y="520" as="targetPoint"/>
          </mxGeometry>
        </mxCell>
        <mxCell id="HwGpaLwM5g7jAR4dSoJF-5" value="" style="rounded=0;whiteSpace=wrap;html=1;" vertex="1" parent="1">
          <mxGeometry x="230" y="360" width="20" height="200" as="geometry"/>
        </mxCell>
        <mxCell id="HwGpaLwM5g7jAR4dSoJF-6" value="1.1.0-SNAPSHOT" style="text;html=1;strokeColor=none;fillColor=none;align=center;verticalAlign=middle;whiteSpace=wrap;rounded=0;" vertex="1" parent="1">
          <mxGeometry x="260" y="530" width="130" height="20" as="geometry"/>
        </mxCell>
        <mxCell id="HwGpaLwM5g7jAR4dSoJF-7" value="标签1.0.0" style="text;html=1;strokeColor=none;fillColor=none;align=center;verticalAlign=middle;whiteSpace=wrap;rounded=0;" vertex="1" parent="1">
          <mxGeometry x="260" y="400" width="40" height="50" as="geometry"/>
        </mxCell>
        <mxCell id="HwGpaLwM5g7jAR4dSoJF-21" style="edgeStyle=orthogonalEdgeStyle;rounded=0;orthogonalLoop=1;jettySize=auto;html=1;exitX=0.5;exitY=0;exitDx=0;exitDy=0;" edge="1" parent="1" source="HwGpaLwM5g7jAR4dSoJF-8">
          <mxGeometry relative="1" as="geometry">
            <mxPoint x="450" y="320" as="targetPoint"/>
          </mxGeometry>
        </mxCell>
        <mxCell id="HwGpaLwM5g7jAR4dSoJF-8" value="" style="rounded=0;whiteSpace=wrap;html=1;" vertex="1" parent="1">
          <mxGeometry x="390" y="360" width="20" height="200" as="geometry"/>
        </mxCell>
        <mxCell id="HwGpaLwM5g7jAR4dSoJF-9" value="标签1.1.0" style="text;html=1;strokeColor=none;fillColor=none;align=center;verticalAlign=middle;whiteSpace=wrap;rounded=0;" vertex="1" parent="1">
          <mxGeometry x="420" y="390" width="40" height="50" as="geometry"/>
        </mxCell>
        <mxCell id="HwGpaLwM5g7jAR4dSoJF-10" value="" style="rounded=0;whiteSpace=wrap;html=1;" vertex="1" parent="1">
          <mxGeometry x="600" y="270" width="30" height="160" as="geometry"/>
        </mxCell>
        <mxCell id="HwGpaLwM5g7jAR4dSoJF-11" value="" style="shape=flexArrow;endArrow=classic;html=1;" edge="1" parent="1">
          <mxGeometry width="50" height="50" relative="1" as="geometry">
            <mxPoint x="440" y="320" as="sourcePoint"/>
            <mxPoint x="580" y="320" as="targetPoint"/>
          </mxGeometry>
        </mxCell>
        <mxCell id="HwGpaLwM5g7jAR4dSoJF-12" value="分支&lt;br&gt;1.1.1-SNAPSHOT" style="text;html=1;strokeColor=none;fillColor=none;align=center;verticalAlign=middle;whiteSpace=wrap;rounded=0;" vertex="1" parent="1">
          <mxGeometry x="440" y="270" width="130" height="40" as="geometry"/>
        </mxCell>
        <mxCell id="HwGpaLwM5g7jAR4dSoJF-13" value="标签1.1.1" style="text;html=1;strokeColor=none;fillColor=none;align=center;verticalAlign=middle;whiteSpace=wrap;rounded=0;" vertex="1" parent="1">
          <mxGeometry x="640" y="275" width="40" height="75" as="geometry"/>
        </mxCell>
        <mxCell id="HwGpaLwM5g7jAR4dSoJF-14" value="" style="rounded=0;whiteSpace=wrap;html=1;" vertex="1" parent="1">
          <mxGeometry x="780" y="390" width="20" height="200" as="geometry"/>
        </mxCell>
        <mxCell id="HwGpaLwM5g7jAR4dSoJF-16" value="标签1.2.0" style="text;html=1;strokeColor=none;fillColor=none;align=center;verticalAlign=middle;whiteSpace=wrap;rounded=0;" vertex="1" parent="1">
          <mxGeometry x="820" y="377.5" width="40" height="75" as="geometry"/>
        </mxCell>
        <mxCell id="HwGpaLwM5g7jAR4dSoJF-17" value="" style="endArrow=classic;html=1;exitX=0.75;exitY=1;exitDx=0;exitDy=0;" edge="1" parent="1" source="HwGpaLwM5g7jAR4dSoJF-10">
          <mxGeometry width="50" height="50" relative="1" as="geometry">
            <mxPoint x="620" y="610" as="sourcePoint"/>
            <mxPoint x="720" y="510" as="targetPoint"/>
          </mxGeometry>
        </mxCell>
        <mxCell id="HwGpaLwM5g7jAR4dSoJF-18" value="1.2.0-SNAPSHOT" style="text;html=1;strokeColor=none;fillColor=none;align=center;verticalAlign=middle;whiteSpace=wrap;rounded=0;" vertex="1" parent="1">
          <mxGeometry x="480" y="530" width="270" height="30" as="geometry"/>
        </mxCell>
        <mxCell id="HwGpaLwM5g7jAR4dSoJF-19" value="主干" style="text;html=1;strokeColor=none;fillColor=none;align=center;verticalAlign=middle;whiteSpace=wrap;rounded=0;" vertex="1" parent="1">
          <mxGeometry x="1060" y="490" width="80" height="50" as="geometry"/>
        </mxCell>
        <mxCell id="HwGpaLwM5g7jAR4dSoJF-20" value="1.3.0-SNAPSHOT" style="text;html=1;strokeColor=none;fillColor=none;align=center;verticalAlign=middle;whiteSpace=wrap;rounded=0;" vertex="1" parent="1">
          <mxGeometry x="780" y="540" width="270" height="30" as="geometry"/>
        </mxCell>
        <mxCell id="HwGpaLwM5g7jAR4dSoJF-22" value="合并" style="text;html=1;strokeColor=none;fillColor=none;align=center;verticalAlign=middle;whiteSpace=wrap;rounded=0;" vertex="1" parent="1">
          <mxGeometry x="680" y="420" width="40" height="50" as="geometry"/>
        </mxCell>
      </root>
    </mxGraphModel>
  </diagram>
</mxfile>
